<svg xmlns="http://www.w3.org/2000/svg" viewBox="0 0 664.92 258.53"><defs><style>.cls-1{fill:none;stroke:#daa520;stroke-miterlimit:10;stroke-width:10px;}.cls-2{fill:#daa520;}</style></defs><title>iconMachine2</title><g id="Calque_2" data-name="Calque 2"><g id="objects"><path class="cls-1" d="M359.26,58.86a11.52,11.52,0,1,1-5.21,6.85A11.48,11.48,0,0,1,359.26,58.86Z"/><path class="cls-1" d="M359.26,58.86,339.49,33.75a42.29,42.29,0,0,1,62.73,11.88l-27.28,17a11.52,11.52,0,0,0-15.68-3.79Z"/><path class="cls-1" d="M402.22,45.63a42.29,42.29,0,0,1-10.41,54.57L373.4,76.81a11.51,11.51,0,0,0,1.54-14.16Z"/><path class="cls-1" d="M355.39,74.85,330.51,90.38a42.28,42.28,0,0,1,9-56.63l19.77,25.11a11.52,11.52,0,0,0-3.87,16Z"/><path class="cls-1" d="M354.53,107.72a42.11,42.11,0,0,1-24-17.34l24.88-15.53a11.52,11.52,0,0,0,18,2l18.41,23.39A42.22,42.22,0,0,1,354.53,107.72Z"/><circle class="cls-2" cx="365.26" cy="68.55" r="5.36" transform="translate(202.68 402.73) rotate(-74.69)"/><path class="cls-1" d="M2.2,84.11C194-9.74,352.91-17.8,402.43,47.81c10,13.19,14.29,97.72,15.41,79.32"/><path class="cls-1" d="M662.17,38c-22.84-15-54.18-32.88-83.67-23.9C517.07,32.77,475.43,116.69,416.76,132.79c-17.87,4.9-39.43-2.29-80.43-34.77"/><polyline class="cls-1" points="356.29 15.33 91.76 250.48 6.91 82.38"/><polyline class="cls-1" points="340.95 101.65 529.17 244.5 659.6 32.12"/></g></g></svg>